<?xml version="1.0" encoding="UTF-8" standalone="no"?>
<!-- Created with Inkscape (http://www.inkscape.org/) -->

<svg
   width="55mm"
   height="55mm"
   viewBox="-4 0 50 50.000001"
   version="1.1"
   id="svg1"
   xml:space="preserve"
   inkscape:version="1.4 (e7c3feb100, 2024-10-09)"
   sodipodi:docname="Haskell-pride.svg"
   inkscape:export-filename="Haskell-pride.png"
   inkscape:export-xdpi="236.45091"
   inkscape:export-ydpi="236.45091"
   xmlns:inkscape="http://www.inkscape.org/namespaces/inkscape"
   xmlns:sodipodi="http://sodipodi.sourceforge.net/DTD/sodipodi-0.dtd"
   xmlns="http://www.w3.org/2000/svg"
   xmlns:svg="http://www.w3.org/2000/svg"><sodipodi:namedview
     id="namedview1"
     pagecolor="#ffffff"
     bordercolor="#666666"
     borderopacity="1.0"
     inkscape:showpageshadow="2"
     inkscape:pageopacity="0.0"
     inkscape:pagecheckerboard="true"
     inkscape:deskcolor="#d1d1d1"
     inkscape:document-units="mm"
     inkscape:zoom="3.053844"
     inkscape:cx="109.86154"
     inkscape:cy="90.869082"
     inkscape:window-width="1889"
     inkscape:window-height="1058"
     inkscape:window-x="31"
     inkscape:window-y="232"
     inkscape:window-maximized="1"
     inkscape:current-layer="layer1" /><defs
     id="defs1" /><g
     inkscape:label="Layer 1"
     inkscape:groupmode="layer"
     id="layer1"
     transform="translate(-6.0784409,-1.0236225)"><path
       style="fill:#5e5086;fill-opacity:1;stroke-linejoin:round"
       d="M 44.00325,6.7208713 C 43.689725,6.7191903 43.47781,6.7364963 43.477859,6.7364963 H 40.282547 C 40.253461,6.7364963 39.93668,6.6880573 39.399734,6.7540743 38.862789,6.8200923 37.863585,7.2089403 37.384109,8.0607153 36.918112,8.8885493 36.963302,9.5159173 36.972,9.9845433 36.980698,10.453169 37.018875,10.827847 37.018875,10.892746 37.018875,11.825834 37.040979,12.688197 37.061844,13.57634 H 35.450515 C 35.41076,13.57634 35.096359,13.546534 34.682937,13.541184 34.611762,13.540263 34.462992,13.605712 34.382156,13.605637 34.373176,13.30533 34.336747,13.00037 34.329422,12.70134 34.323255,12.449582 34.417047,11.466042 34.2845,10.412277 34.218226,9.8853953 34.11694,9.2848023 33.665359,8.6134493 33.213779,7.9420963 32.163903,7.3333463 31.231765,7.3536843 31.120317,7.3561153 30.99967,7.3651323 30.87825,7.3810273 29.9451,7.5031863 28.872768,7.5495633 27.856765,7.5548553 27.760796,7.5553563 27.398175,7.5379693 26.946609,7.5841523 26.495043,7.6303363 25.785015,7.5764893 24.987625,8.5138403 24.373473,9.2357793 24.372061,9.8959283 24.362625,10.281418 24.353189,10.666908 24.380255,10.928706 24.380203,10.896652 24.382046,12.041823 24.46624,13.216183 24.597,14.324387 24.677899,15.010018 24.692996,15.864431 24.720047,16.642747 24.357049,15.993617 23.941606,15.324744 23.376297,14.685716 23.596029,13.769192 23.451702,12.841974 22.888015,12.041184 22.842603,11.782823 22.829435,11.48762 22.737625,11.310715 22.424327,10.707034 22.05109,10.380453 21.68489,10.091965 21.318691,9.8034773 20.946056,9.5793923 20.548172,9.3986053 20.150288,9.2178193 19.792266,9.0407453 19.081375,9.0411843 18.475922,9.0415563 17.859406,9.3348913 17.520828,9.6271213 17.209704,9.8956563 17.078773,10.115271 16.977859,10.281418 16.97081,10.283356 16.952031,10.296977 16.944656,10.298996 16.762912,10.105523 16.544475,9.9501613 16.302078,9.8419653 14.565722,9.2250983 12.944417,9.2869893 11.856765,9.1368873 11.557252,9.0955533 10.835622,8.8686193 9.8469983,8.8732153 9.6166405,8.8742853 9.3692655,8.8916563 9.1009045,8.9435273 H 9.0989515 C 8.1580935,9.1253903 7.7276875,9.5956833 7.3782485,10.009934 7.0288085,10.424184 6.7733595,10.8232 6.6223895,11.474777 6.3318567,12.728776 6.8260135,13.32253 7.0774675,13.75798 7.3289205,14.193431 7.5800425,14.543104 7.5755145,14.535324 8.3124335,15.80131 9.0287055,17.247207 9.9700453,18.679856 10.26098,18.983655 10.640285,19.188002 11.05403,19.263841 11.158199,19.535979 11.267153,19.761813 11.42903,20.004075 11.503217,20.425645 11.640311,20.770995 11.796219,21.0197 12.145852,21.577443 12.529214,21.898787 12.930984,22.189622 13.332754,22.480458 13.746936,22.713205 14.241531,22.886888 14.717733,23.054111 15.24959,23.166185 15.751297,23.166185 H 12.331375 C 10.735732,23.165482 9.7816863,24.941748 10.663405,26.271653 L 15.446609,33.482591 C 15.447259,33.483894 15.44791,33.485196 15.448562,33.486497 L 16.479812,35.033372 15.374344,36.693528 10.667311,43.756026 C 9.7816273,45.085136 10.734201,46.865056 12.331375,46.865396 H 15.751297 C 15.773978,46.865396 16.055968,46.891146 16.425125,46.904466 16.794282,46.917776 17.279373,46.965486 17.997391,46.664226 18.13689,46.605696 18.161472,46.529746 18.276687,46.466966 18.471706,46.642426 18.699334,46.777806 18.946609,46.865396 H 22.292312 C 22.327467,46.865396 22.60722,46.889886 22.973953,46.902506 23.340686,46.915136 23.821882,46.954716 24.516922,46.675946 25.579047,46.249926 25.850392,45.633306 26.114578,45.215006 26.378764,44.796716 26.577065,44.421666 26.583328,44.412276 26.955246,43.854396 27.497941,43.194136 28.040359,42.455246 L 29.266922,44.326336 C 29.288155,44.358216 29.3103,44.389476 29.333328,44.420086 L 30.511062,46.009936 C 30.875683,46.502096 31.445704,46.800056 32.057937,46.818526 L 33.530594,46.863446 C 33.550765,46.864406 33.570949,46.865056 33.59114,46.865396 H 36.936844 C 37.868737,46.844466 38.662638,46.182616 38.850906,45.269696 38.917236,45.314966 38.918926,45.396786 38.991531,45.437666 39.633299,45.798976 40.544439,45.868276 41.263015,45.599776 41.357083,45.564626 41.386408,45.447216 41.473953,45.400556 41.730983,45.504906 41.996678,45.636946 42.231765,45.672046 42.598919,45.726856 42.955876,45.733666 43.37239,45.652506 43.531527,45.621506 43.757166,45.387556 43.948562,45.314616 44.385971,45.539826 44.870159,45.692546 45.317703,45.693526 45.565833,45.694066 45.872019,45.623406 46.173172,45.539226 47.166472,45.932306 47.967523,45.741556 48.555984,45.504076 49.269314,45.216196 49.902466,45.081056 50.507156,43.867356 50.75153,43.376856 50.865698,42.695816 50.757156,42.136886 50.686497,41.773036 50.550384,41.606966 50.427078,41.394696 50.509309,41.141376 50.70984,40.950426 50.698562,40.718916 50.664168,40.012936 50.299063,39.174706 49.700515,38.691576 49.101968,38.208439 48.449637,38.082029 47.927078,38.070479 47.073735,38.051639 46.409779,38.300209 45.77864,38.740396 45.68155,38.683236 45.580833,38.645826 45.481765,38.597826 45.462916,38.251499 45.344774,37.830859 44.880203,37.24431 44.238908,36.434597 43.789597,36.474844 43.458328,36.404466 43.127059,36.334088 42.849949,36.321023 42.561844,36.328294 42.4756,36.330468 42.370257,36.362212 42.282547,36.36931 V 35.86931 C 42.092209,35.503409 41.793413,35.205295 41.427078,35.015794 41.793703,34.82578 42.092533,34.52695 42.282547,34.160325 V 30.888841 C 42.088674,30.499674 41.773276,30.184276 41.384109,29.990403 H 43.925125 43.927078 C 44.261878,29.989845 44.76096,30.032258 45.481765,29.687669 46.202571,29.34308 46.905554,28.286566 46.958328,27.447435 47.242383,22.930617 46.889969,18.469675 46.889969,14.238449 46.889969,12.991619 46.911653,11.68258 46.817703,10.310715 46.824612,10.411599 46.8345,10.163796 46.847,9.7950903 46.859499,9.4263843 46.919462,8.8525183 46.495437,8.0782933 46.170047,7.4841753 45.562074,7.0609013 45.09114,6.8946993 44.620207,6.7284983 44.264994,6.7222753 44.00325,6.7208713 Z"
       id="path69-7"
       sodipodi:nodetypes="scssssscsscssssssscscscccssssscccssccscsccccssssccccccccsssccsscsccccccccccsscsscscssscssccccsscccccccsscscssss" /><path
       style="fill:#eeeeee;stroke-linejoin:round;fill-opacity:1"
       d="M 40.828248,5.1333702 C 40.514723,5.1316892 40.302808,5.1489952 40.302857,5.1489952 H 37.107545 C 37.078459,5.1489952 36.761678,5.1005562 36.224732,5.1665732 35.687787,5.2325912 34.688583,5.6214392 34.209107,6.4732143 33.74311,7.3010483 33.7883,7.9284163 33.796998,8.3970423 33.805696,8.8656683 33.843873,9.2403463 33.843873,9.3052453 33.843873,10.238333 33.865977,11.100696 33.886842,11.988839 H 32.275513 C 32.235758,11.988839 31.921357,11.959033 31.507935,11.953683 31.43676,11.952762 31.28799,12.018211 31.207154,12.018136 31.198174,11.717829 31.161745,11.412869 31.15442,11.113839 31.148253,10.862081 31.242045,9.8785413 31.109498,8.8247763 31.043224,8.2978943 30.941938,7.6973013 30.490357,7.0259483 30.038777,6.3545953 28.988901,5.7458453 28.056763,5.7661833 27.945315,5.7686143 27.824668,5.7776313 27.703248,5.7935263 26.770098,5.9156853 25.697766,5.9620623 24.681763,5.9673543 24.585794,5.9678553 24.223173,5.9504683 23.771607,5.9966513 23.320041,6.0428353 22.610013,5.9889883 21.812623,6.9263393 21.198471,7.6482783 21.197059,8.3084273 21.187623,8.6939173 21.178187,9.0794073 21.205253,9.3412053 21.205201,9.3091513 21.207044,10.454322 21.291238,11.628682 21.421998,12.736886 21.502897,13.422516 21.517994,14.276929 21.545045,15.055246 21.182047,14.406115 20.766604,13.737242 20.201295,13.098214 20.421027,12.181691 20.2767,11.254473 19.713013,10.453683 19.667601,10.195322 19.654433,9.9001193 19.562623,9.7232143 19.249325,9.1195333 18.876088,8.7929523 18.509888,8.5044643 18.143689,8.2159763 17.771054,7.9918913 17.37317,7.8111043 16.975286,7.6303183 16.617264,7.4532443 15.906373,7.4536833 15.30092,7.4540553 14.684404,7.7473903 14.345826,8.0396203 14.034702,8.3081553 13.903771,8.5277703 13.802857,8.6939173 13.795808,8.6958553 13.777029,8.7094763 13.769654,8.7114953 13.58791,8.5180223 13.369473,8.3626603 13.127076,8.2544643 11.39072,7.6375973 9.7694153,7.6994883 8.6817645,7.5493863 8.3822515,7.5080523 7.6606215,7.2811183 6.6719985,7.2857143 6.4416401,7.2867843 6.1942654,7.3041553 5.9259046,7.3560263 H 5.9239515 C 4.9830931,7.5378893 4.5526879,8.0081823 4.2032484,8.4224333 3.8538088,8.8366833 3.5983591,9.2356993 3.447389,9.8872763 3.1568562,11.141275 3.6510135,11.735029 3.9024671,12.170479 4.1539207,12.60593 4.4050425,12.955603 4.400514,12.947823 5.137434,14.213808 5.8537053,15.659706 6.7950455,17.092355 7.0859795,17.396154 7.4652845,17.600501 7.8790295,17.67634 7.9831985,17.948478 8.0921525,18.174312 8.2540295,18.416574 8.3282165,18.838144 8.4653105,19.183494 8.6212175,19.432199 8.9708505,19.989942 9.3542125,20.311286 9.7559823,20.602121 10.157752,20.892957 10.571934,21.125704 11.066529,21.299387 11.542731,21.46661 12.074588,21.578684 12.576295,21.578684 H 9.1563735 C 7.5607315,21.577981 6.6066865,23.354247 7.4884045,24.684152 L 12.271607,31.89509 C 12.272257,31.896393 12.272908,31.897695 12.27356,31.898996 L 13.30481,33.445871 12.199342,35.106027 7.4923105,42.168526 C 6.6066275,43.497636 7.5592005,45.277556 9.1563735,45.277896 H 12.576295 C 12.598976,45.277896 12.880966,45.303646 13.250123,45.316966 13.61928,45.330276 14.104371,45.377986 14.822389,45.076726 14.961888,45.018196 14.98647,44.942246 15.101685,44.879466 15.296704,45.054916 15.524332,45.190306 15.771607,45.277896 H 19.11731 C 19.152465,45.277896 19.432218,45.302386 19.798951,45.315006 20.165684,45.327626 20.64688,45.367216 21.34192,45.088446 22.404045,44.662426 22.67539,44.045806 22.939576,43.627506 23.203762,43.209216 23.402063,42.834166 23.408326,42.824776 23.780244,42.266896 24.322939,41.606636 24.865357,40.867746 L 26.09192,42.738836 C 26.113153,42.770716 26.135298,42.801976 26.158326,42.832586 L 27.33606,44.422436 C 27.700681,44.914596 28.270702,45.212556 28.882935,45.231026 L 30.355592,45.275946 C 30.375763,45.276906 30.395947,45.277556 30.416138,45.277896 H 33.761842 C 34.693735,45.256966 35.487636,44.595116 35.675904,43.682196 35.742234,43.727466 35.743924,43.809286 35.816529,43.850166 36.458297,44.211476 37.369437,44.280776 38.088013,44.012276 38.182081,43.977126 38.211406,43.859706 38.298951,43.813056 38.555981,43.917406 38.821676,44.049446 39.056763,44.084536 39.423917,44.139356 39.780874,44.146156 40.197388,44.065006 40.356525,44.034006 40.582164,43.800056 40.77356,43.727116 41.210969,43.952326 41.695157,44.105036 42.142701,44.106026 42.390831,44.106566 42.697017,44.035906 42.99817,43.951726 43.99147,44.344806 44.792521,44.154056 45.380982,43.916576 46.094312,43.628696 46.727464,43.493556 47.332154,42.279856 47.576528,41.789356 47.690696,41.108316 47.582154,40.549386 47.511495,40.185526 47.375382,40.019466 47.252076,39.807196 47.334307,39.553876 47.534838,39.362926 47.52356,39.131416 47.489166,38.425439 47.124061,37.587208 46.525513,37.104074 45.926966,36.620941 45.274635,36.494526 44.752076,36.48298 43.898733,36.46414 43.234777,36.712712 42.603638,37.152902 42.506548,37.095735 42.405831,37.058326 42.306763,37.010324 42.287914,36.663994 42.169772,36.243358 41.705201,35.656809 41.063906,34.847096 40.614595,34.887343 40.283326,34.816965 39.952057,34.746587 39.674947,34.733522 39.386842,34.740793 39.300598,34.742967 39.195255,34.774711 39.107545,34.781809 V 34.281809 C 38.917207,33.915908 38.618411,33.617794 38.252076,33.428293 38.618701,33.238279 38.917531,32.939449 39.107545,32.572824 V 29.30134 C 38.913672,28.912173 38.598274,28.596775 38.209107,28.402902 H 40.750123 40.752076 C 41.086876,28.402344 41.585958,28.444757 42.306763,28.100168 43.027569,27.755579 43.730552,26.699065 43.783326,25.859934 44.067381,21.343116 43.714967,16.882174 43.714967,12.650948 43.714967,11.404118 43.736651,10.095079 43.642701,8.7232143 43.64961,8.8240983 43.659498,8.5762953 43.671998,8.2075893 43.684497,7.8388833 43.74446,7.2650173 43.320435,6.4907923 42.995045,5.8966743 42.387072,5.4734002 41.916138,5.3071982 41.445205,5.1409972 41.089992,5.1347742 40.828248,5.1333702 Z"
       id="path69"
       sodipodi:nodetypes="scssssscsscssssssscscscccssssscccssccscsccccssssccccccccsssccsscsccccccccccsscsscscssscssccccsscccccccsscscssss" /><path
       style="fill:#453a62;stroke-linejoin:round;fill-opacity:1"
       d="M 37.153245,40.646056 C 37.063649,40.645316 36.968379,40.662036 36.868508,40.700326 35.951131,41.051966 36.484998,42.477056 37.388373,42.139506 38.223701,41.827386 37.88281,40.652166 37.153245,40.646056 Z"
       id="path81" /><path
       style="fill:#5e5086;stroke-linejoin:round;fill-opacity:1"
       d="M 44.707823,38.482369 C 44.219558,38.471589 43.64304,38.713726 43.366819,39.025486 42.530123,39.969846 44.560911,40.732366 43.112571,41.239826 43.199323,41.496256 43.286821,41.957496 43.521848,42.118326 44.028944,42.465316 45.303278,41.866526 45.54188,41.387616 45.889965,40.688956 45.104477,40.412616 45.028733,39.831636 44.983778,39.486886 45.544036,39.591096 45.526377,39.228576 45.500553,38.698516 45.138644,38.491889 44.707823,38.482369 Z"
       id="path80" /><path
       style="fill:#8f4e8b;stroke-linejoin:round;fill-opacity:1"
       d="M 39.437343,36.739325 C 39.134999,36.746945 38.83792,36.816705 38.771234,36.952225 38.599882,37.300465 38.726792,37.958005 38.726792,38.340779 38.726792,39.441026 38.631252,40.589376 38.730926,41.684756 38.772718,42.144026 39.87823,42.265266 40.137042,41.938486 40.454936,41.537116 40.213523,40.185866 40.213523,39.678676 41.444412,40.000206 40.686494,42.102196 42.146222,42.105406 43.349407,42.108046 42.556289,40.914416 42.515708,40.347886 42.423703,39.063416 41.397175,38.492869 40.213523,38.489609 40.213523,38.108129 40.380658,37.206585 40.137042,36.899005 40.047609,36.786085 39.739687,36.731695 39.437343,36.739325 Z"
       id="path79" /><path
       style="fill:#4f0e8b;stroke-linejoin:round;fill-opacity:1"
       d="M 29.450356,34.282624 30.912282,36.512975 31.630068,37.477264 33.166925,37.553745 H 37.107253 V 34.282624 Z"
       id="path78" /><path
       style="fill:#4f0e8b;stroke-linejoin:round;fill-opacity:1"
       d="M 26.179238,29.302049 27.690773,31.680715 28.359466,32.528209 30.937087,32.573167 H 37.107253 V 29.302049 Z"
       id="path77" /><path
       style="fill:#1161b3;stroke-linejoin:round;fill-opacity:1"
       d="M 19.981166,23.54116 C 19.724478,23.547098 19.462486,23.578367 19.265965,23.578367 H 15.772121 L 17.358071,26.031448 20.52997,30.788779 21.768654,32.647064 22.209454,33.43358 21.768654,34.20821 20.480361,36.140905 17.40768,40.749926 15.772121,43.277426 H 19.117137 C 19.550399,43.277426 20.191,43.395366 20.59715,43.232466 21.083883,43.037236 21.463068,42.137456 21.74385,41.716276 22.684719,40.304976 24.092035,38.765886 24.692507,37.181675 H 24.841335 L 27.765187,41.642386 28.94341,43.232466 30.416705,43.277426 H 33.761721 C 33.132248,41.616696 31.650674,39.999756 30.664235,38.520099 L 24.221734,28.85608 C 23.395767,27.617134 22.575851,26.373896 21.74385,25.138996 21.460783,24.718851 21.109052,23.908015 20.664846,23.654332 20.489474,23.554178 20.237855,23.535222 19.981166,23.54116 Z"
       id="path76" /><path
       style="fill:#2e5d34;stroke-linejoin:round;fill-opacity:1"
       d="M 13.515928,23.533926 C 13.191644,23.529103 12.835666,23.578367 12.575417,23.578367 H 9.1559875 L 13.938641,30.788779 15.177325,32.647064 15.60779,33.465102 15.152521,34.282624 13.86371,36.215325 9.1559875,43.277426 H 12.575417 C 13.001327,43.277426 13.651829,43.398986 14.048712,43.232466 14.639252,42.984686 15.175396,41.719696 15.524591,41.195896 L 19.191551,35.694945 C 19.536277,35.177855 20.649338,34.022276 20.595082,33.390688 20.539881,32.748101 19.639964,31.845677 19.288702,31.309162 18.096316,29.487919 16.855925,27.694361 15.648098,25.882619 15.267887,25.312301 14.671095,23.90275 14.038377,23.622809 13.893975,23.55892 13.710498,23.536819 13.515928,23.533926 Z"
       id="path75" /><path
       style="fill:#efd50c;stroke-linejoin:round;fill-opacity:1"
       d="M 18.645331,14.329835 C 18.276777,14.762128 17.456256,15.671026 17.456256,16.259434 17.456256,16.957062 18.49459,18.174676 18.911464,18.7213 L 16.015,18.377134 14.719989,20.118113 C 15.230355,20.432487 15.874462,20.428199 16.458384,20.508787 17.793981,20.693104 19.564455,21.226285 20.898423,21.045189 21.306525,20.989786 21.764126,20.343894 21.814646,19.951199 21.875674,19.47686 21.313262,18.806718 21.082391,18.413308 20.311116,17.099058 19.676654,15.455191 18.645331,14.329835 Z"
       id="path73" /><path
       style="fill:#ea510c;stroke-linejoin:round;fill-opacity:1"
       d="M 15.907513,9.4541643 C 15.498983,9.4544153 15.400888,10.07134 15.1303,10.282537 14.732893,10.592715 14.151259,10.558282 13.734519,10.8825 13.019336,11.438895 12.701884,12.248883 12.663784,13.138694 12.63625,13.781879 12.78599,14.678627 12.358376,15.228489 11.855786,15.87476 10.81713,15.469956 10.26238,15.128237 9.4556425,16.118874 9.2614965,17.017462 10.26238,17.789573 9.7929313,18.447103 11.816708,19.756263 12.340806,19.449937 12.689995,19.245844 12.706013,18.720721 13.048773,18.503742 14.053404,17.867778 14.929074,17.96877 15.32512,16.598432 15.5782,15.722768 15.126639,14.30022 15.758685,13.572259 16.386908,12.848692 17.248593,13.955301 17.754946,13.553139 18.511424,12.952321 18.513696,11.707092 17.780784,11.202894 18.270639,10.526996 16.561782,9.4537603 15.907513,9.4541643 Z"
       id="path72" /><path
       style="fill:#b8183a;stroke-linejoin:round;fill-opacity:1"
       d="M 6.6812025,9.2856993 C 6.550751,9.2863053 6.424184,9.2966683 6.304482,9.3198053 5.902085,9.3975863 5.485641,9.9497913 5.395493,10.338864 5.285222,10.814816 5.9,11.547578 6.129816,11.942384 6.9111585,13.284683 7.6133375,14.695448 8.4661075,15.993301 H 8.5989155 C 8.9373445,15.492032 9.6764605,14.764496 9.7533673,14.155169 9.8418543,13.454138 8.6736495,12.209822 8.3327825,11.602353 L 8.3994445,11.535691 C 9.0152705,11.75479 10.614104,12.258179 11.220461,11.949102 11.72543,11.691704 12.230388,10.639541 12.458111,10.13836 11.211682,9.6955473 9.7163485,9.7116903 8.4082295,9.5311623 7.8894435,9.4595673 7.2464945,9.2830713 6.6812025,9.2856993 Z"
       id="path71" /><path
       style="fill:#2e262d;fill-opacity:1;stroke-linejoin:round"
       d="M 27.992674,7.5445203 C 27.94903,7.5454723 27.903966,7.5486763 27.856765,7.5548553 26.798068,7.6934493 25.653587,7.7410123 24.585647,7.7465753 24.230624,7.7484263 23.477816,7.7089253 23.228624,8.0018563 23.007612,8.2616573 23.098408,8.7686803 23.098916,9.0844783 23.100604,10.133462 23.178058,11.239485 23.300971,12.281182 23.480381,13.801709 23.446969,15.36177 23.551601,16.889687 23.683062,18.809365 23.906414,20.76424 23.916437,22.6883 23.921654,23.69046 23.983211,24.738231 24.078184,25.736176 24.109345,26.063626 24.078006,26.577414 24.320547,26.827582 24.628524,27.145236 25.381263,27.008501 25.775238,26.956773 26.945274,26.803147 28.184694,26.967643 29.343496,26.741799 29.952066,26.623196 29.9391,26.185204 29.938292,25.661761 29.936663,24.605091 29.827539,23.516726 29.727452,22.465057 29.366409,18.671327 29.140707,14.752268 29.04739,10.942762 29.022688,9.934335 29.345643,7.5150003 27.992674,7.5445203 Z"
       id="path70" /><path
       id="path70-2"
       style="fill:#614336;fill-opacity:1;stroke-linejoin:round"
       d="M 27.992764,7.5447187 C 27.94912,7.5456707 27.904196,7.548875 27.856995,7.555054 27.285643,7.6298497 26.689227,7.6763782 26.09342,7.7058552 26.09342,7.7058552 26.466307,9.7642013 26.551825,10.879854 26.637343,11.995507 26.481541,12.942599 26.585396,14.386316 26.689251,15.830033 27.131011,17.547029 27.277444,19.517925 27.423877,21.488821 27.372777,26.197153 27.372777,26.197153 27.351431,26.454626 27.268297,26.686656 27.089322,26.879222 27.757725,26.897657 28.705784,26.865842 29.343398,26.741575 29.951968,26.622972 29.938954,26.18498 29.938146,25.661537 29.936517,24.604867 29.827769,23.516784 29.727682,22.465115 29.366639,18.671385 29.14075,14.752185 29.047433,10.942679 29.022731,9.9342522 29.345733,7.5151987 27.992764,7.5447187 Z"
       sodipodi:nodetypes="ssczzzccsssss" /><g
       id="g81"
       transform="translate(81.993794,38.640913)"><path
         style="fill:#3eb0db;fill-opacity:1;stroke-linejoin:round"
         d="M -41.175657,-31.507538 C -41.357164,-31.508511 -41.539855,-31.491518 -41.690354,-31.491518 H -44.886541 C -45.276591,-31.491518 -45.815456,-31.588605 -46.042026,-31.18611 -46.309131,-30.711604 -46.150547,-29.864865 -46.150547,-29.335577 -46.150547,-27.770486 -46.076133,-26.217233 -46.076133,-24.652142 H -49.718804 C -50.171494,-24.652142 -50.862194,-24.778843 -51.271681,-24.554474 -51.658546,-24.3425 -51.577089,-23.834555 -51.577089,-23.463066 V -20.637916 C -51.577089,-20.289268 -51.651924,-19.810574 -51.33731,-19.567697 -51.002151,-19.30896 -50.269365,-19.448842 -49.867632,-19.448842 H -46.076133 C -46.074986,-17.719789 -46.001719,-15.979988 -46.001719,-14.245024 -46.001719,-13.766208 -46.187557,-12.78549 -45.820851,-12.418779 -45.522584,-12.120508 -44.898468,-12.237913 -44.514988,-12.237913 H -41.244386 C -40.738769,-12.238756 -40.244795,-12.301764 -40.206723,-12.907122 -39.93464,-17.233574 -40.278037,-21.65376 -40.278037,-25.990562 -40.278037,-27.257072 -40.259344,-28.520084 -40.345733,-29.781545 -40.374181,-30.196945 -40.22283,-30.814351 -40.428415,-31.189728 -40.573246,-31.45417 -40.873144,-31.505916 -41.175657,-31.507538 Z"
         id="path68-4-1" /><path
         id="path68-4-1-0"
         style="fill:#e79cc5;fill-opacity:1;stroke-linejoin:round"
         d="M -41.550564,-31.495888 C -41.595572,-31.494078 -41.64964,-31.49166 -41.69056,-31.49166 H -44.886512 C -44.889584,-31.49166 -44.893288,-31.492118 -44.896378,-31.49213 -44.980901,-30.912668 -45.042559,-30.234543 -45.026039,-29.525607 -44.993708,-28.138131 -44.696418,-26.616094 -44.725376,-25.758864 -44.754284,-24.903108 -44.749227,-24.225762 -44.736651,-23.605836 H -48.141188 C -49.335762,-23.605836 -50.008087,-23.564025 -51.143589,-23.564025 -51.270256,-23.564025 -51.44438,-23.565127 -51.57955,-23.565435 -51.578693,-23.531702 -51.577201,-23.495006 -51.577201,-23.463021 V -20.63773 C -51.577201,-20.59093 -51.579386,-20.538 -51.580959,-20.487398 -50.396253,-20.515782 -49.211737,-20.629273 -48.02703,-20.629273 -46.998252,-20.629273 -45.500539,-20.554452 -44.702826,-20.512297 -44.745534,-19.398375 -44.864432,-18.284632 -44.864432,-17.170711 -44.864432,-15.825174 -44.711282,-14.479379 -44.711282,-13.133842 -44.711282,-12.879771 -44.720744,-12.551877 -44.729604,-12.229034 -44.655486,-12.233052 -44.578407,-12.23796 -44.514912,-12.23796 H -41.431238 V -13.248469 C -41.431238,-14.443043 -41.472579,-15.115368 -41.472579,-16.25087 -41.472579,-17.386371 -41.458955,-18.898808 -41.458955,-20.159018 -41.458955,-21.419228 -41.584388,-22.715213 -41.584388,-23.909787 -41.584388,-25.104361 -41.486673,-26.364859 -41.486673,-27.270635 -41.486673,-28.176411 -41.544456,-28.481848 -41.544456,-29.45326 -41.544456,-29.977487 -41.547361,-30.630388 -41.550564,-31.495888 Z"
         sodipodi:nodetypes="csscsscsscsscscsscscssssssc" /><path
         id="path68-4-1-8"
         style="fill:#e1e0eb;fill-opacity:1;stroke-linejoin:round"
         d="M -43.846407,-31.49166 C -43.88153,-30.911241 -43.914995,-30.244356 -43.914995,-29.743117 -43.914995,-28.656842 -43.692317,-27.317199 -43.692317,-26.194825 -43.692317,-25.07245 -43.761845,-23.954024 -43.761845,-22.841495 -43.761845,-22.744044 -43.765019,-22.66924 -43.765603,-22.577475 -44.400042,-22.622745 -45.322043,-22.682237 -46.066614,-22.682237 -47.152889,-22.682237 -48.492532,-22.487276 -49.614906,-22.487276 -50.27065,-22.487276 -50.924541,-22.499838 -51.577201,-22.511705 V -21.560389 C -51.562884,-21.56042 -51.551238,-21.561328 -51.5368,-21.561328 -50.401298,-21.561328 -48.899988,-21.449989 -48.02703,-21.449989 -47.154072,-21.449989 -46.876769,-21.533611 -46.07601,-21.533611 -45.508621,-21.533611 -44.470362,-21.504186 -43.780637,-21.483814 -43.792001,-20.94253 -43.803656,-20.356488 -43.803656,-19.519639 -43.803656,-18.799588 -43.877864,-18.057347 -43.868017,-17.06313 -43.85704,-15.95479 -43.608695,-13.877066 -43.608695,-12.994785 -43.608695,-12.742127 -43.617332,-12.490906 -43.623258,-12.23796 H -42.572348 C -42.613279,-13.918825 -42.65456,-15.842803 -42.65456,-16.883672 -42.65456,-18.819932 -42.50141,-19.835588 -42.50141,-21.108925 -42.50141,-22.382262 -42.599125,-23.13743 -42.599125,-24.272932 -42.599125,-25.408434 -42.404164,-26.909743 -42.404164,-27.782701 -42.404164,-28.655659 -42.570938,-28.932493 -42.570938,-29.733252 -42.570938,-30.125047 -42.554115,-30.853402 -42.537114,-31.49166 Z" /></g></g></svg>
